<?xml version="1.0" encoding="UTF-8" standalone="no"?>
<!-- Created with Inkscape (http://www.inkscape.org/) -->

<svg
   width="128mm"
   height="128mm"
   viewBox="0 0 128 128"
   version="1.1"
   id="svg1"
   xml:space="preserve"
   xmlns="http://www.w3.org/2000/svg"
   xmlns:svg="http://www.w3.org/2000/svg"><defs
     id="defs1" /><g
     id="layer1"
     transform="translate(-8.0270016,-52.366781)"><rect
       style="fill:#d75d73;fill-opacity:1;stroke:none;stroke-width:1;stroke-linecap:round;stroke-linejoin:round;stroke-miterlimit:5;stroke-dasharray:none;stroke-opacity:1"
       id="rect1"
       width="128"
       height="128"
       x="8.0270014"
       y="52.366776" /><path
       fill="currentColor"
       d="m 105.99813,147.28029 -4.73261,4.72591 -9.458518,-9.45852 4.72926,-4.72924 z M 68.15737,84.067426 a 30.101359,30.101359 0 0 1 2.618819,0.12046 20.067572,20.067572 0 0 0 -2.337875,6.57547 l -0.280914,-0.007 c -12.933545,0 -23.412163,10.478614 -23.412163,23.412164 0,12.93356 10.478609,23.41217 23.412163,23.41217 12.933553,0 23.41216,-10.47861 23.41216,-23.41217 l -0.01018,-0.28432 a 20.067572,20.067572 0 0 0 6.575488,-2.34123 c 0.07389,0.86958 0.123757,1.73921 0.123757,2.62551 0,16.61595 -13.485402,30.10137 -30.101351,30.10137 -16.615951,0 -30.101359,-13.48542 -30.101359,-30.10137 0,-16.615954 13.485408,-30.101364 30.101359,-30.101364 m 18.495608,-2.27429 a 1.6923653,1.6923653 0 0 1 3.143919,0 l 0.849569,2.04021 a 14.615882,14.615882 0 0 0 7.525345,7.78287 l 2.401435,1.07027 a 1.7726355,1.7726355 0 0 1 0,3.2175 l -2.541919,1.13047 a 14.582436,14.582436 0 0 0 -7.418309,7.525354 l -0.826153,1.89305 a 1.6923653,1.6923653 0 0 1 -3.123848,0 l -0.82273,-1.88966 a 14.582436,14.582436 0 0 0 -7.425005,-7.528704 l -2.541891,-1.13047 a 1.7726355,1.7726355 0 0 1 0,-3.22084 l 2.401426,-1.07028 a 14.615882,14.615882 0 0 0 7.528685,-7.77619 z"
       id="path1"
       style="fill:#ffffff;fill-opacity:1;stroke:#ffffff;stroke-width:2;stroke-linecap:round;stroke-linejoin:round;stroke-dasharray:none;stroke-opacity:1" /></g></svg>
